<svg xmlns="http://www.w3.org/2000/svg" viewBox="0 0 346.2027 72.59229"><defs><style>.cls-1{fill:none;stroke:#000;stroke-miterlimit:10;}.cls-2{fill:#fff;}</style></defs><g id="レイヤー_1" data-name="レイヤー 1"><path class="cls-1" d="M622.03105,351" transform="translate(-841.10167 -315.40771)"/><path class="cls-1" d="M790.85041,418" transform="translate(-841.10167 -315.40771)"/><path class="cls-1" d="M575.14959,351" transform="translate(-841.10167 -315.40771)"/><path class="cls-1" d="M743.969,418" transform="translate(-841.10167 -315.40771)"/><path class="cls-1" d="M755.78287,351" transform="translate(-841.10167 -315.40771)"/><path class="cls-1" d="M598.23522,351" transform="translate(-841.10167 -315.40771)"/></g><g id="レイヤー_3" data-name="レイヤー 3"><path class="cls-2" d="M925.36873,333.68274l1.01527.50763,18.27486,22.3361,18.27518-22.3361,1.01527-.50763h8.6298l.50763.50763v51.77909l-.50763.50764h-9.13743l-.50764-.50764V349.41958l-17.76755,21.82847h-1.01527L926.384,349.41958v36.54988l-.50763.50764h-9.13776l-.50764-.50764V334.19037l.50764-.50763Z" transform="translate(-841.10167 -315.40771)"/><path class="cls-2" d="M1079.18078,349.92722c-6.59958-5.07652-11.67593-7.10706-18.78282-7.10706a17.26744,17.26744,0,0,0,0,34.51951c7.10689,0,12.18324-2.03054,18.78282-7.10689l.50764.50763v11.168C1074.1041,385.46183,1068.52012,388,1060.398,388c-15.73668,0-28.42789-12.18324-28.42789-27.92008s12.69121-27.92009,28.42789-27.92009c8.12216,0,13.70614,2.53818,19.29046,6.09162v11.16813Z" transform="translate(-841.10167 -315.40771)"/><path class="cls-2" d="M1101.51605,333.68274l.50764.50763v18.275h26.397v-18.275l.50764-.50763h9.13776l.50763.50763v51.77909l-.50763.50764h-9.13776l-.50764-.50764v-23.3512h-26.397v23.3512l-.50764.50764h-9.13775l-.50764-.50764V334.19037l.50764-.50763Z" transform="translate(-841.10167 -315.40771)"/><path class="cls-2" d="M1162.43125,333.68274l.50763.50763v51.77909l-.50763.50764h-9.13776l-.50763-.50764V334.19037l.50763-.50763Z" transform="translate(-841.10167 -315.40771)"/><path class="cls-2" d="M1186.79673,333.68274l.50764.50763v51.77909l-.50764.50764H1177.659l-.50763-.50764V334.19037l.50763-.50763Z" transform="translate(-841.10167 -315.40771)"/><polygon class="cls-2" points="156.351 28.511 156.351 28.428 179.194 28.428 179.702 27.92 179.702 18.783 179.194 18.275 146.705 18.275 146.198 18.783 146.198 28.511 156.351 28.511"/><polygon class="cls-2" points="163.017 49.187 163.017 49.241 173.103 49.241 173.61 48.733 173.61 39.596 173.103 39.088 162.779 39.088 162.779 39.119 146.198 39.119 146.198 49.187 163.017 49.187"/><polygon class="cls-2" points="179.24 60.917 156.351 60.917 156.351 60.863 146.198 60.863 146.198 70.562 146.705 71.069 179.24 71.069 179.748 70.562 179.748 61.424 179.24 60.917"/><polygon class="cls-2" points="38.581 0.508 38.073 0 28.936 0 28.428 0.508 0 70.562 0.508 71.069 10.66 71.069 11.168 70.562 17.768 54.317 17.791 54.317 21.853 44.165 21.829 44.165 33.504 14.214 45.18 44.165 45.092 44.165 49.189 54.317 49.241 54.317 55.84 70.562 56.348 71.069 66.501 71.069 67.008 70.562 38.581 0.508"/></g></svg>